<?xml version="1.0" encoding="UTF-8"?>
<svg version="1.1" xmlns="http://www.w3.org/2000/svg" width="512" height="512">
<path d="M0 0 C1.01790619 0.00215515 2.03581238 0.0043103 3.08456421 0.00653076 C17.69363523 0.05620146 32.02575853 0.30709809 46.375 3.3125 C47.34985352 3.51117676 48.32470703 3.70985352 49.32910156 3.91455078 C97.7109774 14.03517194 141.69928269 35.9516877 177.375 70.3125 C178.3640332 71.26068604 178.3640332 71.26068604 179.37304688 72.22802734 C188.86130305 81.37247479 197.6012044 90.66984009 205.375 101.3125 C206.23306152 102.46355017 207.09113451 103.61459177 207.94921875 104.765625 C213.98736829 112.95680614 219.34595521 121.47054105 224.375 130.3125 C224.73948242 130.94430176 225.10396484 131.57610352 225.47949219 132.22705078 C247.08534998 169.97532572 256.85198095 212.74189997 256.6875 255.9375 C256.68534485 256.95540619 256.6831897 257.97331238 256.68096924 259.02206421 C256.63129854 273.63113523 256.38040191 287.96325853 253.375 302.3125 C253.07698486 303.77478027 253.07698486 303.77478027 252.77294922 305.26660156 C242.65232806 353.6484774 220.7358123 397.63678269 186.375 433.3125 C185.74287598 433.97185547 185.11075195 434.63121094 184.45947266 435.31054688 C175.31502521 444.79880305 166.01765991 453.5387044 155.375 461.3125 C154.22394983 462.17056152 153.07290823 463.02863451 151.921875 463.88671875 C143.73224019 469.92427396 135.22961724 475.30707302 126.375 480.3125 C125.66778809 480.7146875 124.96057617 481.116875 124.23193359 481.53125 C101.09654164 494.5566741 75.92537591 503.30551461 49.9375 508.625 C49.21860596 508.77235596 48.49971191 508.91971191 47.7590332 509.0715332 C33.08339502 511.86090125 18.55831162 512.66142619 3.64770508 512.62817383 C0.70811513 512.6250221 -2.2304558 512.64854926 -5.16992188 512.67382812 C-18.54306192 512.71848737 -31.43916711 511.51301542 -44.625 509.3125 C-46.33055054 509.03031616 -46.33055054 509.03031616 -48.07055664 508.74243164 C-91.33802759 500.97044532 -132.38793216 480.98345309 -165.625 452.3125 C-166.37007813 451.67828125 -167.11515625 451.0440625 -167.8828125 450.390625 C-181.38779833 438.57948485 -194.05918743 425.82889772 -204.625 411.3125 C-205.48149066 410.16255169 -206.33826433 409.01281411 -207.1953125 407.86328125 C-213.23534209 399.67315742 -218.61867614 391.16870382 -223.625 382.3125 C-224.0271875 381.60528809 -224.429375 380.89807617 -224.84375 380.16943359 C-237.8691741 357.03404164 -246.61801461 331.86287591 -251.9375 305.875 C-252.08485596 305.15610596 -252.23221191 304.43721191 -252.3840332 303.6965332 C-255.35789088 288.05024391 -255.99800362 272.57681954 -255.9375 256.6875 C-255.93534485 255.66959381 -255.9331897 254.65168762 -255.93096924 253.60293579 C-255.88129854 238.99386477 -255.63040191 224.66174147 -252.625 210.3125 C-252.42632324 209.33764648 -252.22764648 208.36279297 -252.02294922 207.35839844 C-241.90232806 158.9765226 -219.9858123 114.98821731 -185.625 79.3125 C-184.99287598 78.65314453 -184.36075195 77.99378906 -183.70947266 77.31445312 C-174.56502521 67.82619695 -165.26765991 59.0862956 -154.625 51.3125 C-153.47394983 50.45443848 -152.32290823 49.59636549 -151.171875 48.73828125 C-142.98224019 42.70072604 -134.47961724 37.31792698 -125.625 32.3125 C-124.91778809 31.9103125 -124.21057617 31.508125 -123.48193359 31.09375 C-100.34654164 18.0683259 -75.17537591 9.31948539 -49.1875 4 C-48.46860596 3.85264404 -47.74971191 3.70528809 -47.0090332 3.5534668 C-31.36274391 0.57960912 -15.88931954 -0.06050362 0 0 Z " fill="#3E75C3" transform="translate(255.625,-0.3125)"/>
<path d="M0 0 C1.29500931 0.00223572 1.29500931 0.00223572 2.61618042 0.0045166 C15.24548011 0.04376668 27.59379768 0.38216074 39.9375 3.3125 C41.16855469 3.60253906 42.39960938 3.89257812 43.66796875 4.19140625 C47.14364189 5.11336616 50.53074059 6.16262125 53.9375 7.3125 C54.56043945 7.52245605 55.18337891 7.73241211 55.82519531 7.94873047 C77.82403562 15.48040702 97.65211639 26.76181012 114.9375 42.3125 C115.92878906 43.18261719 116.92007812 44.05273438 117.94140625 44.94921875 C123.36426794 49.76708091 128.4196337 54.63550437 132.9375 60.3125 C133.58887939 61.12799316 133.58887939 61.12799316 134.25341797 61.95996094 C141.86161427 71.56362469 148.35058225 81.41081412 153.9375 92.3125 C154.28796387 92.98893555 154.63842773 93.66537109 154.99951172 94.36230469 C168.84326356 121.38602313 173.69320933 150.18019174 172.9375 180.3125 C172.91945313 181.42753906 172.90140625 182.54257812 172.8828125 183.69140625 C171.27901293 219.1165086 155.27039737 255.81651619 131.9375 282.3125 C131.1846875 283.17488281 130.431875 284.03726562 129.65625 284.92578125 C127.44744737 287.4182486 125.2023187 289.87093501 122.9375 292.3125 C122.36128906 292.95445312 121.78507812 293.59640625 121.19140625 294.2578125 C105.74206243 310.70499813 78.08493303 330.50890086 55.07421875 333.7109375 C54.26597656 333.70320313 53.45773437 333.69546875 52.625 333.6875 C51.80386719 333.69523437 50.98273438 333.70296875 50.13671875 333.7109375 C47.43916167 333.2222149 46.58401863 332.47070595 44.9375 330.3125 C43.88012991 327.14038973 43.80676167 324.87902397 43.7956543 321.546875 C43.78510262 319.768573 43.78510262 319.768573 43.77433777 317.9543457 C43.77017349 316.67003662 43.76600922 315.38572754 43.76171875 314.0625 C43.75128575 312.72549659 43.73986172 311.38850058 43.72749329 310.05151367 C43.6752074 304.38089517 43.62716715 298.71040461 43.61157227 293.03955078 C43.60139843 289.5668982 43.57183335 286.09484896 43.53025246 282.62243652 C43.51218992 280.67577903 43.51457214 278.72896565 43.51750183 276.78222656 C43.37571357 266.37224102 41.22688029 257.69834038 34.9375 249.3125 C34.2775 248.3225 33.6175 247.3325 32.9375 246.3125 C33.52015625 246.22274902 34.1028125 246.13299805 34.703125 246.04052734 C57.31245424 242.47227039 80.34251595 236.75727163 95.0078125 217.609375 C108.11005938 197.75748578 113.41658777 172.3568388 109.25390625 148.8125 C107.07419766 138.64252373 103.20346591 129.08799515 96.5 121.0625 C94.859093 119.00281986 93.99044914 117.8927343 93.75 115.2578125 C94 113.1875 94 113.1875 94.9375 109.3125 C97.38499346 96.38334979 95.58197906 84.76812925 91.9375 72.3125 C90.38950858 70.76450858 88.97378016 71.03022819 86.8125 70.9375 C72.4262881 71.16228456 58.87634114 79.32747506 47.23046875 87.125 C44.54889875 88.51375175 43.73073629 88.48817373 40.875 87.6875 C15.67900063 81.7677351 -11.56970415 80.4452096 -36.609375 87.82421875 C-40.63584117 88.62566504 -43.32455824 87.33075022 -46.71484375 85.203125 C-47.4020752 84.7803125 -48.08930664 84.3575 -48.79736328 83.921875 C-49.5242334 83.47328125 -50.25110352 83.0246875 -51 82.5625 C-63.09138634 75.32257996 -74.07945602 71.60830076 -88.0625 70.3125 C-91.58654822 83.81026959 -93.49889241 96.03244327 -90.5 109.83984375 C-89.71754007 114.26213962 -89.48324664 116.3569795 -91.890625 120.328125 C-92.68924892 121.41268629 -93.49699226 122.49057627 -94.3125 123.5625 C-97.96323065 128.61293752 -101.03933655 133.39627962 -103.0625 139.3125 C-103.35898438 140.13105469 -103.65546875 140.94960937 -103.9609375 141.79296875 C-110.24502808 162.23067618 -106.51483107 189.31954685 -97.0625 208.3125 C-86.17447849 227.63209914 -69.65227847 236.65781453 -49.0078125 242.9375 C-42.49511497 244.72639546 -35.7445265 245.43032234 -29.0625 246.3125 C-29.44921875 246.84617187 -29.8359375 247.37984375 -30.234375 247.9296875 C-35.10912976 254.90396535 -38.55525362 261.89579744 -40.0625 270.3125 C-50.41375765 274.10739642 -60.48851674 276.52381542 -71.25 272.875 C-80.46825566 268.60203222 -86.51184881 261.04376874 -92.19921875 252.89453125 C-96.5306352 246.89229587 -101.71063923 241.28816291 -109.0625 239.3125 C-113.41943381 239.00701384 -117.70376756 239.07330127 -122.0625 239.3125 C-121.75958971 242.56037144 -121.41464156 243.97452505 -119.0234375 246.26953125 C-118.17007813 246.88183594 -117.31671875 247.49414062 -116.4375 248.125 C-107.34920077 255.10904813 -102.87766564 262.30509233 -97.9609375 272.4609375 C-92.46616986 283.74024659 -85.48245414 291.28428793 -73.453125 295.6015625 C-62.74447062 298.78616233 -51.00531792 297.51257421 -40.0625 296.3125 C-39.9880987 300.63578804 -39.93378032 304.95873255 -39.89770508 309.2824707 C-39.88265934 310.75193782 -39.86221762 312.22136034 -39.83618164 313.69067383 C-39.79961045 315.8082177 -39.78273199 317.92516565 -39.76953125 320.04296875 C-39.7538208 321.31551514 -39.73811035 322.58806152 -39.72192383 323.89916992 C-40.08666884 327.55472549 -40.8528872 329.41324358 -43.0625 332.3125 C-47.71414342 334.63832171 -52.54446628 333.77245513 -57.32421875 332.32421875 C-79.56931315 323.78691225 -98.47835221 311.21778688 -116.0625 295.3125 C-116.93519531 294.52488281 -117.80789062 293.73726563 -118.70703125 292.92578125 C-149.93440564 263.21184988 -168.07942444 218.6747655 -169.1875 175.94921875 C-169.87389519 137.15174031 -158.65947305 99.39571126 -135.0625 68.3125 C-134.09763672 67.03246094 -134.09763672 67.03246094 -133.11328125 65.7265625 C-125.68040752 56.16785674 -117.52021261 46.90554813 -108.0625 39.3125 C-107.12019531 38.54421875 -106.17789063 37.7759375 -105.20703125 36.984375 C-86.51789473 22.01214186 -64.66958844 10.85063711 -41.5625 4.625 C-40.44234497 4.32106323 -40.44234497 4.32106323 -39.29956055 4.01098633 C-26.20362125 0.63234393 -13.44550517 -0.05717459 0 0 Z " fill="#FDFEFE" transform="translate(254.0625,85.6875)"/>
</svg>
